<svg width="56" height="77" viewBox="0 0 56 77" fill="none" xmlns="http://www.w3.org/2000/svg">
    <path fill-rule="evenodd" clip-rule="evenodd" d="M39.0739 27.9098L38.7667 27.6539C36.4247 25.7031 33.1041 22.1379 30.2789 17.4949C29.5233 16.2531 28.7934 14.918 28.1234 13.5007C27.5969 14.4235 27.0508 15.3164 26.5001 16.1711C23.4511 20.9034 19.8987 25.0152 17.4992 27.4113L17.0871 27.8228L16.5742 28.0999C9.07636 32.1502 4 40.0481 4 49.1207C4 62.3184 14.7452 73.0172 28 73.0172C41.2548 73.0172 52 62.3184 52 49.1207C52 40.0481 46.9236 32.1502 39.4258 28.0999L39.0739 27.9098ZM26.1889 8.58023C27.5556 5.69051 28.5043 2.74772 28.6667 0C28.8082 3.10103 29.4853 6.05422 30.4783 8.78188C33.2265 16.3304 38.3951 22.1517 41.3333 24.5992C50.0688 29.3181 56 38.5297 56 49.1207C56 64.518 43.464 77 28 77C12.536 77 0 64.518 0 49.1207C0 38.5297 5.93117 29.3181 14.6667 24.5992C17.7584 21.5118 23.0653 15.1846 26.1889 8.58023Z" fill="url(#paint0_linear)"/>
    <path fill-rule="evenodd" clip-rule="evenodd" d="M20.0072 45.442C16.3755 47.9818 14.0006 52.1996 14.0006 56.9782C14.0006 64.7506 20.2816 71.0279 28.0006 71.0279C35.7196 71.0279 42.0006 64.7506 42.0006 56.9782C42.0006 52.1996 39.6257 47.9818 35.994 45.442L38.2929 42.1828C42.9514 45.4405 46.0006 50.8547 46.0006 56.9782C46.0006 66.9243 37.9547 75.0107 28.0006 75.0107C18.0465 75.0107 10.0006 66.9243 10.0006 56.9782C10.0006 50.8547 13.0498 45.4405 17.7082 42.1828L20.0072 45.442Z" fill="url(#paint1_linear)"/>
    <path fill-rule="evenodd" clip-rule="evenodd" d="M28.0008 25.2246C22.1098 25.2246 17.3341 29.9796 17.3341 35.8453C17.3341 38.8042 18.5445 41.4759 20.5097 43.4061C22.2459 44.5604 24.7251 46.3113 26.9081 48.0793C27.3946 48.4732 27.8801 48.8791 28.3486 49.2891C28.8069 48.8247 29.2824 48.3734 29.7561 47.9435C31.713 46.1674 33.9182 44.5034 35.4677 43.4297C37.4471 41.4977 38.6675 38.8163 38.6675 35.8453C38.6675 29.9796 33.8918 25.2246 28.0008 25.2246ZM38.0008 46.5281C36.2116 47.7486 33.2631 49.9797 31.1509 52.1321C29.8527 53.4551 28.8705 54.7484 28.6675 55.7591C28.4622 54.9416 27.3289 53.7109 25.8223 52.3812C23.4139 50.2554 20.0514 47.8765 18.0008 46.5281C15.1295 43.8623 13.3341 40.0626 13.3341 35.8453C13.3341 27.78 19.9006 21.2418 28.0008 21.2418C36.101 21.2418 42.6675 27.78 42.6675 35.8453C42.6675 40.0626 40.8721 43.8623 38.0008 46.5281Z" fill="url(#paint2_linear)"/>
    <defs>
        <linearGradient id="paint0_linear" x1="28" y1="21.2414" x2="28" y2="77" gradientUnits="userSpaceOnUse">
            <stop stop-color="#40D6A2"/>
            <stop offset="1" stop-color="#28C9C8"/>
        </linearGradient>
        <linearGradient id="paint1_linear" x1="28.0006" y1="40.9355" x2="28.0006" y2="73.0176" gradientUnits="userSpaceOnUse">
            <stop stop-color="#40D6A2"/>
            <stop offset="1" stop-color="#28C9C8"/>
        </linearGradient>
        <linearGradient id="paint2_linear" x1="28.0008" y1="21.2418" x2="28.0008" y2="50.4487" gradientUnits="userSpaceOnUse">
            <stop stop-color="#40D6A2"/>
            <stop offset="1" stop-color="#28C9C8"/>
        </linearGradient>
    </defs>
</svg>
